<svg width="25" height="25" viewBox="0 0 25 25" fill="none" xmlns="http://www.w3.org/2000/svg">
<path d="M2.34375 22.8723H8.20312V14.0071H16.7969V22.8723H22.6562V9.04255L12.5 2.12766L2.34375 9.04255V22.8723ZM2.34375 25C1.69271 25 1.13932 24.7931 0.683594 24.3794C0.227865 23.9657 0 23.4634 0 22.8723V9.04255C0 8.71158 0.0846353 8.39243 0.253906 8.08511C0.423177 7.77778 0.651042 7.52955 0.9375 7.34043L11.0938 0.425532C11.3021 0.283688 11.5234 0.177305 11.7578 0.106383C11.9922 0.0354611 12.2396 0 12.5 0C12.7604 0 13.0078 0.0354611 13.2422 0.106383C13.4766 0.177305 13.6979 0.283688 13.9062 0.425532L24.0625 7.34043C24.349 7.52955 24.5768 7.77778 24.7461 8.08511C24.9154 8.39243 25 8.71158 25 9.04255V22.8723C25 23.4634 24.7721 23.9657 24.3164 24.3794C23.8607 24.7931 23.3073 25 22.6562 25H14.4531V16.1348H10.5469V25H2.34375Z" fill="white"/>
</svg>
