<svg width="47" height="47" viewBox="0 0 47 47" fill="none" xmlns="http://www.w3.org/2000/svg">
<path d="M23.5052 11.4498C16.8366 11.4498 11.4577 16.8299 11.4577 23.5C11.4577 30.1701 16.8366 35.5502 23.5052 35.5502C30.1738 35.5502 35.5528 30.1701 35.5528 23.5C35.5528 16.8299 30.1738 11.4498 23.5052 11.4498ZM23.5052 31.3342C19.1958 31.3342 15.6728 27.8209 15.6728 23.5C15.6728 19.1791 19.1853 15.6658 23.5052 15.6658C27.8252 15.6658 31.3377 19.1791 31.3377 23.5C31.3377 27.8209 27.8147 31.3342 23.5052 31.3342ZM38.8556 10.9569C38.8556 12.5195 37.5974 13.7675 36.0456 13.7675C34.4833 13.7675 33.2355 12.509 33.2355 10.9569C33.2355 9.40472 34.4938 8.14621 36.0456 8.14621C37.5974 8.14621 38.8556 9.40472 38.8556 10.9569ZM46.8349 13.8095C46.6566 10.0445 45.7968 6.70942 43.0392 3.96168C40.2921 1.21393 36.9578 0.353955 33.1936 0.165179C29.3141 -0.0550597 17.6859 -0.0550597 13.8064 0.165179C10.0527 0.343468 6.7184 1.20345 3.96079 3.95119C1.20318 6.69893 0.353876 10.034 0.165142 13.799C-0.0550474 17.6794 -0.0550474 29.3101 0.165142 33.1905C0.343391 36.9555 1.20318 40.2906 3.96079 43.0383C6.7184 45.7861 10.0422 46.646 13.8064 46.8348C17.6859 47.0551 29.3141 47.0551 33.1936 46.8348C36.9578 46.6565 40.2921 45.7966 43.0392 43.0383C45.7863 40.2906 46.6461 36.9555 46.8349 33.1905C47.055 29.3101 47.055 17.6899 46.8349 13.8095ZM41.8229 37.3541C41.0051 39.4096 39.4218 40.9932 37.3562 41.8218C34.2631 43.0488 26.9234 42.7656 23.5052 42.7656C20.0871 42.7656 12.7369 43.0383 9.65427 41.8218C7.59916 41.0037 6.0159 39.4201 5.18756 37.3541C3.96079 34.2602 4.24389 26.9189 4.24389 23.5C4.24389 20.0811 3.97128 12.7293 5.18756 9.64593C6.00541 7.59037 7.58868 6.00675 9.65427 5.17823C12.7474 3.95119 20.0871 4.23435 23.5052 4.23435C26.9234 4.23435 34.2736 3.96168 37.3562 5.17823C39.4113 5.99626 40.9946 7.57988 41.8229 9.64593C43.0497 12.7398 42.7666 20.0811 42.7666 23.5C42.7666 26.9189 43.0497 34.2707 41.8229 37.3541Z" fill="white"/>
</svg>
