<svg width="27" height="29" viewBox="0 0 27 29" fill="none" xmlns="http://www.w3.org/2000/svg">
<path d="M6.37343 3.63142C6.37902 4.34956 6.10142 5.04107 5.60062 5.55653C5.09983 6.07199 4.41604 6.37 3.69701 6.38618C2.97947 6.35989 2.29946 6.05935 1.79752 5.54666C1.29559 5.03397 1.01008 4.34833 1 3.63142C1.03119 2.93293 1.3272 2.27243 1.82801 1.78379C2.32883 1.29516 2.99697 1.01496 3.69701 1C4.39499 1.01524 5.06079 1.29613 5.55827 1.78525C6.05576 2.27437 6.34735 2.93476 6.37343 3.63142ZM1.28823 11.279C1.28823 9.69601 2.29703 9.94271 3.69701 9.94271C5.09698 9.94271 6.0852 9.69601 6.0852 11.279V26.6974C6.0852 28.301 5.07639 27.972 3.69701 27.972C2.31762 27.972 1.28823 28.301 1.28823 26.6974V11.279Z" stroke="#FFFDFD" stroke-width="2" stroke-linecap="round" stroke-linejoin="round"/>
<path d="M10.244 11.2791C10.244 10.3951 10.5734 10.0662 11.0881 9.9634C11.6028 9.86061 13.3733 9.9634 13.991 9.9634C14.1855 9.9634 14.3433 10.0634 14.4676 10.2241C14.766 10.6102 15.5593 10.9151 15.9553 10.6298C16.241 10.424 16.5481 10.2471 16.8723 10.1026C17.6682 9.74782 18.5408 9.59989 19.4089 9.6723C19.4341 9.6744 19.4594 9.67478 19.4847 9.67339C20.3368 9.62662 21.1895 9.75669 21.9891 10.0556C22.8004 10.3589 23.5388 10.8292 24.1562 11.4361C24.7737 12.0429 25.2564 12.7727 25.5729 13.578C25.8895 14.3832 26.0328 15.246 25.9937 16.1102V26.6359C25.9937 28.2394 25.0055 27.9105 23.6055 27.9105C22.2055 27.9105 21.2173 28.2394 21.2173 26.6359V18.4127C21.2535 17.9895 21.1981 17.5635 21.0548 17.1635C20.9115 16.7636 20.6836 16.3991 20.3868 16.0949C20.0899 15.7907 19.731 15.5538 19.3343 15.4004C18.9377 15.2469 18.5126 15.1805 18.088 15.2057C17.6653 15.195 17.2452 15.274 16.8554 15.4376C16.4656 15.6012 16.1151 15.8456 15.827 16.1546C15.539 16.4637 15.3199 16.8303 15.1844 17.2302C15.0489 17.6301 15 18.0542 15.041 18.4744V26.6976C15.041 28.3011 14.0322 27.9722 12.6322 27.9722C11.2322 27.9722 10.244 28.3011 10.244 26.6976V11.2791Z" stroke="#FFFDFD" stroke-width="2" stroke-linecap="round" stroke-linejoin="round"/>
</svg>
