<svg width="24" height="24" viewBox="0 0 24 24" fill="none" xmlns="http://www.w3.org/2000/svg">
<path d="M5.25161 23.4615H0.387534V7.79747H5.25161V15.6295V23.4615ZM2.81696 5.66075C1.26158 5.66075 0 4.37243 0 2.81702C1.11327e-08 2.0699 0.296786 1.35338 0.825067 0.825086C1.35335 0.296792 2.06985 0 2.81696 0C3.56406 0 4.28056 0.296792 4.80884 0.825086C5.33713 1.35338 5.63391 2.0699 5.63391 2.81702C5.63391 4.37243 4.37181 5.66075 2.81696 5.66075ZM23.4563 23.4615H18.6027V15.8364C18.6027 14.0191 18.566 11.6886 16.0738 11.6886C13.5448 11.6886 13.1573 13.663 13.1573 15.7054V23.4615H8.29847V7.79747H12.9635V9.93419H13.0316C13.681 8.70348 15.2673 7.40469 17.6339 7.40469C22.5566 7.40469 23.4615 10.6464 23.4615 14.857V23.4615H23.4563Z" fill="white"/>
</svg>
