<svg width="29" height="27" viewBox="0 0 29 27" fill="none" xmlns="http://www.w3.org/2000/svg">
<path d="M24.6565 3.92344C21.9442 1.39219 18.3321 0 14.4935 0C6.57031 0 0.122991 6.00268 0.122991 13.3795C0.122991 15.6624 0.742703 17.8945 1.92327 19.8783C1.99592 20.0004 2.01615 20.1471 1.97605 20.2834L0.245066 26.167C0.13629 26.5367 0.469076 26.8853 0.843456 26.7938L7.43885 25.1818C7.55507 25.1533 7.67746 25.1679 7.78478 25.2207C9.84044 26.2335 12.1423 26.765 14.4871 26.765H14.4935C22.4103 26.765 29 20.7623 29 13.3855C29 9.81161 27.3687 6.45469 24.6565 3.92344ZM14.4935 24.5109C12.3444 24.5109 10.2406 23.9746 8.4087 22.9621L8.1462 22.8161C8.03614 22.755 7.90705 22.7376 7.78472 22.7674L4.29916 23.6182C3.92498 23.7096 3.59239 23.3613 3.70081 22.9918L4.59452 19.9453C4.63645 19.8024 4.61248 19.6482 4.52914 19.5248L4.37589 19.2978C3.17835 17.5259 2.55045 15.4828 2.55045 13.3795C2.55045 7.25023 7.91027 2.26004 14.5 2.26004C17.6913 2.26004 20.6884 3.41719 22.9411 5.52054C25.1937 7.62388 26.579 10.4143 26.5725 13.3855C26.5725 19.5208 21.0768 24.5109 14.4935 24.5109ZM21.0444 16.1819C20.6884 16.0132 18.9212 15.2056 18.5911 15.0971C18.2609 14.9826 18.0214 14.9283 17.7819 15.2658C17.5424 15.6033 16.8563 16.3507 16.6426 16.5797C16.4355 16.8027 16.2219 16.8328 15.8658 16.6641C13.7556 15.6817 12.3703 14.9103 10.9786 12.6864C10.6096 12.0958 11.3475 12.1379 12.0337 10.8603C12.1502 10.6373 12.092 10.4444 12.0013 10.2757C11.9107 10.1069 11.1922 8.46161 10.8944 7.79263C10.6031 7.14174 10.3054 7.23214 10.0853 7.22009C9.87813 7.20804 9.63862 7.20804 9.39911 7.20804C9.1596 7.20804 8.7712 7.29241 8.44107 7.62388C8.11094 7.96138 7.18527 8.76897 7.18527 10.4143C7.18527 12.0596 8.47344 13.6507 8.64821 13.8737C8.82946 14.0967 11.1792 17.4717 14.7848 18.9241C17.0634 19.8402 17.9567 19.9185 19.096 19.7618C19.7886 19.6654 21.2192 18.9542 21.517 18.1708C21.8147 17.3873 21.8147 16.7183 21.7241 16.5797C21.64 16.429 21.4004 16.3446 21.0444 16.1819Z" fill="white"/>
</svg>
