<svg width="24" height="24" viewBox="0 0 24 24" fill="none" xmlns="http://www.w3.org/2000/svg">
<path d="M19.9475 3.40925C17.7533 1.20974 14.831 0 11.7255 0C5.3155 0 0.0995021 5.216 0.0995021 11.626C0.0995021 13.6737 0.633671 15.6742 1.64964 17.439L0 23.4615L6.16389 21.8433C7.86066 22.7703 9.77215 23.2573 11.7203 23.2573H11.7255C18.1303 23.2573 23.4615 18.0413 23.4615 11.6313C23.4615 8.52576 22.1418 5.60877 19.9475 3.40925ZM11.7255 21.2987C9.98686 21.2987 8.28486 20.8326 6.8028 19.9528L6.45192 19.7433L2.79653 20.7017L3.7706 17.1353L3.54018 16.7687C2.57134 15.2291 2.06336 13.4537 2.06336 11.626C2.06336 6.30005 6.39955 1.96386 11.7308 1.96386C14.3126 1.96386 16.7373 2.96935 18.5598 4.79705C20.3822 6.62474 21.5029 9.04945 21.4977 11.6313C21.4977 16.9625 17.0515 21.2987 11.7255 21.2987ZM17.0253 14.0612C16.7373 13.9146 15.3076 13.2128 15.0405 13.1186C14.7734 13.0191 14.5797 12.9719 14.3859 13.2652C14.1921 13.5585 13.637 14.2078 13.4642 14.4069C13.2966 14.6006 13.1238 14.6268 12.8358 14.4802C11.1285 13.6265 10.0078 12.9562 8.88187 11.0238C8.58336 10.5106 9.18037 10.5472 9.73549 9.43698C9.82976 9.24322 9.78262 9.07563 9.70931 8.929C9.63599 8.78237 9.05469 7.35268 8.81379 6.77138C8.57812 6.20579 8.33723 6.28434 8.15917 6.27387C7.99159 6.26339 7.79782 6.26339 7.60405 6.26339C7.41028 6.26339 7.09607 6.33671 6.82898 6.62474C6.5619 6.91801 5.81301 7.61976 5.81301 9.04945C5.81301 10.4791 6.85517 11.8617 6.99657 12.0555C7.1432 12.2492 9.04421 15.1819 11.9612 16.444C13.8046 17.24 14.5273 17.3081 15.449 17.172C16.0094 17.0882 17.1667 16.4702 17.4076 15.7894C17.6485 15.1086 17.6485 14.5273 17.5752 14.4069C17.5071 14.2759 17.3134 14.2026 17.0253 14.0612Z" fill="white"/>
</svg>
