<svg width="110" height="60" viewBox="0 0 110 60" fill="none" xmlns="http://www.w3.org/2000/svg">
<g filter="url(#filter0_d_16_19)">
<path d="M32.463 3.42567C33.3272 2.09096 32.3637 0.330226 30.7736 0.338653L19.5461 0.398158C18.8666 0.401759 18.2355 0.750089 17.8702 1.32305L8.08854 16.6676C7.71964 17.2462 7.67321 17.9737 7.96554 18.5946L12.9944 29.2756C13.4955 30.34 14.9711 30.4395 15.6106 29.4519L32.463 3.42567Z" fill="#E4182D"/>
<path d="M29.976 7.22805C30.8402 5.89334 29.8767 4.1326 28.2866 4.14103L17.0591 4.20054C16.3796 4.20414 15.7485 4.55247 15.3832 5.12543L5.60156 20.4699C5.23266 21.0486 5.18623 21.776 5.47856 22.3969L10.5074 33.078C11.0085 34.1424 12.4841 34.2419 13.1236 33.2543L29.976 7.22805Z" fill="url(#paint0_linear_16_19)"/>
<path d="M26.6601 12.298C27.5244 10.9633 26.5608 9.20258 24.9707 9.211L13.7343 9.27056C13.0597 9.27413 12.4324 9.61752 12.0659 10.1838L2.12951 25.5363C1.74994 26.1228 1.70389 26.8648 2.00802 27.4937L7.18042 38.1895C7.68957 39.2424 9.15425 39.3334 9.7899 38.3518L26.6601 12.298Z" fill="#F8F5F5"/>
<path d="M19.6506 34.6125C19.6506 34.23 19.7603 33.8555 19.9666 33.5335L30.7209 16.7495C31.7986 15.0675 34.4049 15.8309 34.4049 17.8285V55.5327C34.4049 56.6373 33.5094 57.5327 32.4049 57.5327H21.6506C20.546 57.5327 19.6506 56.6373 19.6506 55.5327V34.6125Z" fill="#FCFAFA"/>
<path d="M50.88 23.0001V6.29606H57.096C58.312 6.29606 59.432 6.60006 60.456 7.20806C61.496 7.81606 62.32 8.64006 62.928 9.68006C63.536 10.7041 63.84 11.8241 63.84 13.0401V16.2561C63.84 17.4721 63.536 18.6001 62.928 19.6401C62.32 20.6641 61.496 21.4801 60.456 22.0881C59.432 22.6961 58.312 23.0001 57.096 23.0001H50.88Z" fill="white"/>
<path d="M68.8857 6.29606H80.6457V7.18406H69.7737V13.9521H79.2297V14.8401H69.7737V22.1121H80.6457V23.0001H68.8857V6.29606Z" fill="white"/>
<path d="M86.0033 6.29606L92.3873 21.8241L98.7713 6.29606H99.7073L92.8433 23.0001H91.9073L85.0433 6.29606H86.0033Z" fill="white"/>
<path d="M54.09 34.1401C53.51 34.1401 52.9934 34.0334 52.54 33.8201C52.0867 33.6001 51.73 33.2801 51.47 32.8601C51.2167 32.4334 51.09 31.9201 51.09 31.3201V27.7701H50.61C50.53 27.7701 50.4667 27.7434 50.42 27.6901C50.38 27.6367 50.36 27.5634 50.36 27.4701C50.36 27.3301 50.41 27.2267 50.51 27.1601C50.61 27.0867 50.7434 27.0501 50.91 27.0501H52.97C53.0367 27.0501 53.08 27.0667 53.1 27.1001C53.1267 27.1267 53.14 27.1667 53.14 27.2201C53.14 27.3067 53.11 27.3801 53.05 27.4401C52.99 27.5001 52.8934 27.5567 52.76 27.6101L52.34 27.7701V31.4501C52.34 32.0634 52.5 32.5334 52.82 32.8601C53.14 33.1801 53.5834 33.3401 54.15 33.3401C54.7234 33.3401 55.1734 33.1767 55.5 32.8501C55.8267 32.5234 55.99 32.0567 55.99 31.4501V27.7701H55.43C55.35 27.7701 55.2867 27.7434 55.24 27.6901C55.2 27.6367 55.18 27.5634 55.18 27.4701C55.18 27.3301 55.23 27.2267 55.33 27.1601C55.43 27.0867 55.5634 27.0501 55.73 27.0501H57.55C57.61 27.0501 57.65 27.0634 57.67 27.0901C57.6967 27.1101 57.71 27.1501 57.71 27.2101C57.71 27.3367 57.5934 27.4567 57.36 27.5701L56.97 27.7601V31.3201C56.97 31.9334 56.8467 32.4501 56.6 32.8701C56.36 33.2901 56.0234 33.6067 55.59 33.8201C55.1567 34.0334 54.6567 34.1401 54.09 34.1401Z" fill="white"/>
<path d="M59.6764 28.3801C59.4564 28.3801 59.2731 28.3101 59.1264 28.1701C58.9798 28.0301 58.9064 27.8434 58.9064 27.6101C58.9064 27.3767 58.9798 27.1901 59.1264 27.0501C59.2731 26.9101 59.4564 26.8401 59.6764 26.8401C59.8964 26.8401 60.0798 26.9101 60.2264 27.0501C60.3798 27.1901 60.4564 27.3767 60.4564 27.6101C60.4564 27.8434 60.3798 28.0301 60.2264 28.1701C60.0798 28.3101 59.8964 28.3801 59.6764 28.3801ZM58.6564 34.0001C58.5031 34.0001 58.4264 33.9067 58.4264 33.7201C58.4264 33.4534 58.6031 33.3201 58.9564 33.3201H59.1164V29.7701H58.6564C58.5031 29.7701 58.4264 29.6767 58.4264 29.4901C58.4264 29.3567 58.4731 29.2567 58.5664 29.1901C58.6598 29.1234 58.7898 29.0901 58.9564 29.0901H60.2864V33.3201L60.6864 33.4801C60.8198 33.5401 60.9131 33.5967 60.9664 33.6501C61.0198 33.6967 61.0464 33.7567 61.0464 33.8301C61.0464 33.9434 60.9964 34.0001 60.8964 34.0001H58.6564Z" fill="white"/>
<path d="M64.6356 34.0001C64.5089 34.0001 64.4456 33.9167 64.4456 33.7501C64.4456 33.6234 64.4889 33.5234 64.5756 33.4501C64.6622 33.3701 64.8056 33.3067 65.0056 33.2601L65.2056 33.2101V27.8401L65.0056 27.7901C64.8056 27.7367 64.6622 27.6734 64.5756 27.6001C64.4889 27.5267 64.4456 27.4267 64.4456 27.3001C64.4456 27.1334 64.5089 27.0501 64.6356 27.0501H67.7356C68.3756 27.0501 68.9489 27.1767 69.4556 27.4301C69.9689 27.6834 70.3756 28.0701 70.6756 28.5901C70.9756 29.1101 71.1256 29.7601 71.1256 30.5401C71.1256 31.3201 70.9756 31.9701 70.6756 32.4901C70.3756 33.0034 69.9722 33.3834 69.4656 33.6301C68.9589 33.8767 68.3822 34.0001 67.7356 34.0001H64.6356ZM67.7356 33.2001C68.4222 33.2001 68.9489 32.9667 69.3156 32.5001C69.6822 32.0334 69.8656 31.3801 69.8656 30.5401C69.8656 29.6934 69.6789 29.0334 69.3056 28.5601C68.9389 28.0867 68.4156 27.8501 67.7356 27.8501H66.4556V33.2001H67.7356Z" fill="white"/>
<path d="M74.4432 34.1401C73.9566 34.1401 73.5166 34.0434 73.1232 33.8501C72.7366 33.6567 72.4299 33.3701 72.2032 32.9901C71.9832 32.6101 71.8732 32.1501 71.8732 31.6101C71.8732 31.0634 71.9766 30.5934 72.1832 30.2001C72.3966 29.8067 72.6866 29.5067 73.0532 29.3001C73.4266 29.0934 73.8499 28.9901 74.3232 28.9901C74.7632 28.9901 75.1499 29.0767 75.4832 29.2501C75.8232 29.4234 76.0866 29.6701 76.2732 29.9901C76.4666 30.3101 76.5632 30.6834 76.5632 31.1101C76.5632 31.2301 76.5466 31.3634 76.5132 31.5101C76.4799 31.6567 76.4366 31.7801 76.3832 31.8801H73.0532C73.0532 32.3867 73.1932 32.7701 73.4732 33.0301C73.7599 33.2901 74.1032 33.4201 74.5032 33.4201C74.7366 33.4201 74.9399 33.3934 75.1132 33.3401C75.2932 33.2801 75.4932 33.1867 75.7132 33.0601C75.7399 33.0467 75.7832 33.0234 75.8432 32.9901C75.9099 32.9501 75.9632 32.9301 76.0032 32.9301C76.0899 32.9301 76.1632 32.9634 76.2232 33.0301C76.2832 33.0967 76.3132 33.1801 76.3132 33.2801C76.3132 33.3734 76.2832 33.4567 76.2232 33.5301C76.1632 33.6034 76.0666 33.6801 75.9332 33.7601C75.4932 34.0134 74.9966 34.1401 74.4432 34.1401ZM75.3432 31.1601C75.3766 31.0734 75.3932 30.9734 75.3932 30.8601C75.3932 30.5001 75.2966 30.2201 75.1032 30.0201C74.9099 29.8134 74.6466 29.7101 74.3132 29.7101C73.9666 29.7101 73.6766 29.8401 73.4432 30.1001C73.2099 30.3601 73.0799 30.7134 73.0532 31.1601H75.3432Z" fill="white"/>
<path d="M79.125 34.1401C78.7717 34.1401 78.415 34.0867 78.055 33.9801C77.7017 33.8734 77.4284 33.7467 77.235 33.6001V32.5201C77.235 32.4667 77.2517 32.4201 77.285 32.3801C77.325 32.3401 77.3817 32.3201 77.455 32.3201C77.6417 32.3201 77.7684 32.4501 77.835 32.7101L77.935 33.1401C78.0417 33.2201 78.195 33.2867 78.395 33.3401C78.595 33.3867 78.8017 33.4101 79.015 33.4101C79.6417 33.4101 79.955 33.2334 79.955 32.8801C79.955 32.7467 79.915 32.6367 79.835 32.5501C79.755 32.4567 79.645 32.3734 79.505 32.3001C79.365 32.2267 79.0884 32.0934 78.675 31.9001C78.1617 31.6601 77.795 31.4301 77.575 31.2101C77.3617 30.9834 77.255 30.6967 77.255 30.3501C77.255 29.9234 77.4317 29.5901 77.785 29.3501C78.1384 29.1101 78.5784 28.9901 79.105 28.9901C79.465 28.9901 79.8084 29.0534 80.135 29.1801C80.4684 29.3001 80.7284 29.4401 80.915 29.6001V30.6301C80.915 30.6834 80.895 30.7267 80.855 30.7601C80.8217 30.7934 80.7684 30.8101 80.695 30.8101C80.595 30.8101 80.515 30.7801 80.455 30.7201C80.395 30.6534 80.3484 30.5567 80.315 30.4301L80.205 29.9801C80.0917 29.9001 79.9517 29.8367 79.785 29.7901C79.625 29.7434 79.4517 29.7201 79.265 29.7201C79.0184 29.7201 78.815 29.7634 78.655 29.8501C78.5017 29.9367 78.425 30.0734 78.425 30.2601C78.425 30.3734 78.455 30.4701 78.515 30.5501C78.5817 30.6301 78.6784 30.7067 78.805 30.7801C78.9317 30.8534 79.1417 30.9601 79.435 31.1001L79.765 31.2601C80.2584 31.5001 80.6084 31.7301 80.815 31.9501C81.0217 32.1634 81.125 32.4501 81.125 32.8101C81.125 33.2701 80.9317 33.6067 80.545 33.8201C80.165 34.0334 79.6917 34.1401 79.125 34.1401Z" fill="white"/>
<path d="M83.0944 28.3801C82.8744 28.3801 82.6911 28.3101 82.5444 28.1701C82.3977 28.0301 82.3244 27.8434 82.3244 27.6101C82.3244 27.3767 82.3977 27.1901 82.5444 27.0501C82.6911 26.9101 82.8744 26.8401 83.0944 26.8401C83.3144 26.8401 83.4977 26.9101 83.6444 27.0501C83.7977 27.1901 83.8744 27.3767 83.8744 27.6101C83.8744 27.8434 83.7977 28.0301 83.6444 28.1701C83.4977 28.3101 83.3144 28.3801 83.0944 28.3801ZM82.0744 34.0001C81.9211 34.0001 81.8444 33.9067 81.8444 33.7201C81.8444 33.4534 82.0211 33.3201 82.3744 33.3201H82.5344V29.7701H82.0744C81.9211 29.7701 81.8444 29.6767 81.8444 29.4901C81.8444 29.3567 81.8911 29.2567 81.9844 29.1901C82.0777 29.1234 82.2077 29.0901 82.3744 29.0901H83.7044V33.3201L84.1044 33.4801C84.2377 33.5401 84.3311 33.5967 84.3844 33.6501C84.4377 33.6967 84.4644 33.7567 84.4644 33.8301C84.4644 33.9434 84.4144 34.0001 84.3144 34.0001H82.0744Z" fill="white"/>
<path d="M87.3699 36.3601C87.0632 36.3601 86.7599 36.3234 86.4599 36.2501C86.1599 36.1767 85.9099 36.0801 85.7099 35.9601C85.5765 35.8801 85.4765 35.8034 85.4099 35.7301C85.3499 35.6567 85.3199 35.5701 85.3199 35.4701C85.3199 35.3701 85.3499 35.2867 85.4099 35.2201C85.4699 35.1601 85.5399 35.1301 85.6199 35.1301C85.6532 35.1301 85.6932 35.1401 85.7399 35.1601C85.7865 35.1867 85.8432 35.2201 85.9099 35.2601C86.3365 35.5134 86.8099 35.6401 87.3299 35.6401C87.7765 35.6401 88.1165 35.5234 88.3499 35.2901C88.5832 35.0634 88.6999 34.7434 88.6999 34.3301V33.4901H88.6599C88.4999 33.6901 88.2965 33.8501 88.0499 33.9701C87.8099 34.0834 87.5265 34.1401 87.1999 34.1401C86.7799 34.1401 86.3965 34.0501 86.0499 33.8701C85.7099 33.6834 85.4332 33.4001 85.2199 33.0201C85.0132 32.6401 84.9099 32.1667 84.9099 31.6001C84.9099 31.0267 85.0299 30.5434 85.2699 30.1501C85.5099 29.7567 85.8265 29.4667 86.2199 29.2801C86.6199 29.0867 87.0599 28.9901 87.5399 28.9901C87.9465 28.9901 88.3532 29.0601 88.7599 29.2001C89.1665 29.3401 89.5165 29.5301 89.8099 29.7701V34.1601C89.8099 34.8601 89.5965 35.4001 89.1699 35.7801C88.7499 36.1667 88.1499 36.3601 87.3699 36.3601ZM87.4699 33.4201C87.8099 33.4201 88.0899 33.3167 88.3099 33.1101C88.5365 32.9034 88.6499 32.6301 88.6499 32.2901V30.0001C88.5032 29.9134 88.3365 29.8434 88.1499 29.7901C87.9632 29.7367 87.7699 29.7101 87.5699 29.7101C87.1365 29.7101 86.7799 29.8767 86.4999 30.2101C86.2199 30.5367 86.0799 30.9967 86.0799 31.5901C86.0799 32.1901 86.2032 32.6467 86.4499 32.9601C86.7032 33.2667 87.0432 33.4201 87.4699 33.4201Z" fill="white"/>
<path d="M90.9916 34.0001C90.8383 34.0001 90.7616 33.9067 90.7616 33.7201C90.7616 33.4534 90.9383 33.3201 91.2916 33.3201H91.4516V29.7701H90.9916C90.8383 29.7701 90.7616 29.6767 90.7616 29.4901C90.7616 29.3567 90.8083 29.2567 90.9016 29.1901C90.9949 29.1234 91.1249 29.0901 91.2916 29.0901H92.5716V29.7301H92.6016C93.1549 29.2367 93.7216 28.9901 94.3016 28.9901C94.7816 28.9901 95.1749 29.1301 95.4816 29.4101C95.7949 29.6834 95.9516 30.0601 95.9516 30.5401V33.3201L96.3416 33.4801C96.4749 33.5401 96.5683 33.5967 96.6216 33.6501C96.6749 33.6967 96.7016 33.7567 96.7016 33.8301C96.7016 33.9434 96.6516 34.0001 96.5516 34.0001H94.3116C94.1583 34.0001 94.0816 33.9067 94.0816 33.7201C94.0816 33.4534 94.2583 33.3201 94.6116 33.3201H94.7816V30.6401C94.7816 30.3601 94.7083 30.1434 94.5616 29.9901C94.4149 29.8301 94.1983 29.7501 93.9116 29.7501C93.6916 29.7501 93.4683 29.8134 93.2416 29.9401C93.0149 30.0601 92.8083 30.2201 92.6216 30.4201V33.3201L93.0216 33.4801C93.1549 33.5401 93.2483 33.5967 93.3016 33.6501C93.3549 33.6967 93.3816 33.7567 93.3816 33.8301C93.3816 33.9434 93.3316 34.0001 93.2316 34.0001H90.9916Z" fill="white"/>
<path d="M109 27.5001C109 29.4331 107.433 31.0001 105.5 31.0001C103.567 31.0001 102 29.4331 102 27.5001C102 25.5671 103.567 24.0001 105.5 24.0001C107.433 24.0001 109 25.5671 109 27.5001Z" fill="#F95A00"/>
</g>
<defs>
<filter id="filter0_d_16_19" x="0.808533" y="0.338623" width="109.191" height="59.1941" filterUnits="userSpaceOnUse" color-interpolation-filters="sRGB">
<feFlood flood-opacity="0" result="BackgroundImageFix"/>
<feColorMatrix in="SourceAlpha" type="matrix" values="0 0 0 0 0 0 0 0 0 0 0 0 0 0 0 0 0 0 127 0" result="hardAlpha"/>
<feOffset dy="1"/>
<feGaussianBlur stdDeviation="0.5"/>
<feComposite in2="hardAlpha" operator="out"/>
<feColorMatrix type="matrix" values="0 0 0 0 0 0 0 0 0 0 0 0 0 0 0 0 0 0 0.62 0"/>
<feBlend mode="normal" in2="BackgroundImageFix" result="effect1_dropShadow_16_19"/>
<feBlend mode="normal" in="SourceGraphic" in2="effect1_dropShadow_16_19" result="shape"/>
</filter>
<linearGradient id="paint0_linear_16_19" x1="55.4043" y1="0.338623" x2="55.4043" y2="57.5327" gradientUnits="userSpaceOnUse">
<stop offset="0.421875" stop-color="#EB5F11"/>
<stop offset="0.447917" stop-color="#FAFAFA"/>
</linearGradient>
</defs>
</svg>
